<?xml version="1.0" encoding="UTF-8" standalone="no"?>
<!DOCTYPE svg PUBLIC "-//W3C//DTD SVG 1.1//EN" "http://www.w3.org/Graphics/SVG/1.1/DTD/svg11.dtd">
<svg width="100%" height="100%" viewBox="0 0 309 309" version="1.1" xmlns="http://www.w3.org/2000/svg" xmlns:xlink="http://www.w3.org/1999/xlink" xml:space="preserve" xmlns:serif="http://www.serif.com/" style="fill-rule:evenodd;clip-rule:evenodd;stroke-linejoin:round;stroke-miterlimit:2;">
    <style type="text/css">
        .cls-1{fill:currentColor;}
    </style>
    <rect x="0" y="0" width="308.333" height="308.333" style="fill:none;"/>
    <g>
        <path d="M110.978,81.108C102.236,93.492 86.495,97.417 75.811,89.879C65.132,82.342 63.561,66.192 72.303,53.808C81.041,41.425 96.786,37.496 107.466,45.037C118.149,52.575 119.72,68.725 110.978,81.108" class="cls-1"/>
        <path d="M228.825,13.987C226.608,19.504 227.829,25.192 231.554,26.692C235.279,28.187 240.096,24.929 242.312,19.412C244.533,13.892 243.312,8.204 239.587,6.708C235.862,5.208 231.041,8.471 228.825,13.987" class="cls-1"/>
        <path d="M260.614,103.503C254.647,107.716 251.997,114.224 254.689,118.037C257.385,121.849 264.401,121.524 270.368,117.312C276.331,113.095 278.985,106.591 276.289,102.778C273.597,98.966 266.581,99.291 260.614,103.503" class="cls-1"/>
        <path d="M251.026,177.341C244.518,174.033 237.526,174.72 235.409,178.883C233.293,183.041 236.855,189.099 243.363,192.408C249.876,195.72 256.868,195.029 258.984,190.866C261.097,186.708 257.534,180.649 251.026,177.341" class="cls-1"/>
        <path d="M241.76,95.872C256.21,170.005 132.418,219.551 128.722,215.205C125.21,211.076 223.581,150.697 213.001,87.509C207.951,57.355 179.676,36.067 152.651,21.722C198.576,30.717 234.856,60.438 241.76,95.872" class="cls-1"/>
        <path d="M71.746,212.209C78.117,231.826 113.126,260.259 132.596,286.047C133.876,287.742 135.53,291.472 135.526,294.913C135.521,302.176 125.059,304.176 109.88,299.38C78.28,289.08 42.205,259.151 33.109,225.167C15.259,160.105 114.621,85.555 165.717,73.326C167.301,73.167 169.255,73.226 170.13,74.401C178.617,85.826 56.488,165.217 71.746,212.209" class="cls-1"/>
    </g>
</svg>
