<?xml version="1.0" encoding="UTF-8" standalone="no"?>
<!DOCTYPE svg PUBLIC "-//W3C//DTD SVG 1.1//EN" "http://www.w3.org/Graphics/SVG/1.1/DTD/svg11.dtd">
<svg viewBox="0 0 928 736" version="1.1" xmlns="http://www.w3.org/2000/svg" xmlns:xlink="http://www.w3.org/1999/xlink" xml:space="preserve" xmlns:serif="http://www.serif.com/" style="fill-rule:evenodd;clip-rule:evenodd;stroke-linejoin:round;stroke-miterlimit:2;">
<style type="text/css">
    .cls-1{fill: currentColor;}
</style>
    <g>
        <path d="M431.472,116.681C422.731,129.065 406.989,132.99 396.306,125.452C385.627,117.915 384.056,101.765 392.797,89.381C401.535,76.998 417.281,73.069 427.96,80.611C438.643,88.148 440.214,104.298 431.472,116.681" class="cls-1"/>
        <path d="M549.319,49.56C547.102,55.077 548.323,60.764 552.048,62.264C555.773,63.76 560.59,60.502 562.807,54.985C565.027,49.464 563.807,43.777 560.082,42.281C556.357,40.781 551.536,44.044 549.319,49.56" class="cls-1"/>
        <path d="M581.108,139.076C575.142,143.289 572.492,149.797 575.183,153.61C577.879,157.422 584.896,157.097 590.862,152.885C596.825,148.668 599.479,142.164 596.783,138.351C594.092,134.539 587.075,134.864 581.108,139.076" class="cls-1"/>
        <path d="M571.52,212.914C565.012,209.606 558.02,210.293 555.904,214.456C553.787,218.614 557.349,224.672 563.858,227.981C570.37,231.293 577.362,230.601 579.479,226.439C581.591,222.281 578.029,216.222 571.52,212.914" class="cls-1"/>
        <path d="M562.254,131.445C576.704,205.578 452.912,255.124 449.217,250.778C445.704,246.649 544.075,186.27 533.496,123.082C528.446,92.928 500.171,71.641 473.146,57.295C519.071,66.291 555.35,96.011 562.254,131.445" class="cls-1"/>
        <g id="D-ANTIBES" serif:id="D ANTIBES">
            <path d="M271.422,648.089L289.737,648.089C303.531,648.089 318.729,638.4 318.729,619.024C318.729,599.648 303.531,589.96 289.737,589.96L271.422,589.96L271.422,648.089ZM277.033,595.214L288.178,595.214C304.778,595.214 312.806,607.037 312.806,619.024C312.806,631.011 304.778,642.834 288.178,642.834L277.033,642.834L277.033,595.214Z" class="cls-1"/>
            <path d="M337.122,589.96L331.588,589.96L326.367,609.254L330.809,609.254L337.122,589.96Z" class="cls-1"/>
            <path d="M349.392,632.817L377.916,632.817L383.995,648.089L390.23,648.089L366.538,589.96L361.082,589.96L337.234,648.089L343.391,648.089L349.392,632.817ZM363.654,596.528L375.812,627.399L351.496,627.399L363.654,596.528Z" class="cls-1"/>
            <path d="M405.35,589.96L398.336,589.96L398.336,648.089L403.947,648.089L403.947,598.088L404.103,598.088L436.213,648.089L443.227,648.089L443.227,589.96L437.616,589.96L437.616,639.468L437.46,639.468L405.35,589.96Z" class="cls-1"/>
            <path d="M475.571,595.214L494.041,595.214L494.041,589.96L451.488,589.96L451.488,595.214L469.959,595.214L469.959,648.089L475.571,648.089L475.571,595.214Z" class="cls-1"/>
            <rect x="502.303" y="589.96" width="5.611" height="58.129" class="cls-1"/>
            <path d="M522.566,648.089L538.933,648.089C551.636,648.089 559.508,641.685 559.508,631.996C559.508,623.54 554.208,618.285 547.038,617.464L547.038,617.3C552.883,615.904 556.78,610.896 556.78,604.82C556.78,593.162 547.428,589.96 539.011,589.96L522.566,589.96L522.566,648.089ZM528.177,595.05L537.92,595.05C545.168,595.05 551.169,597.842 551.169,605.231C551.169,612.949 544.856,615.412 539.478,615.412L528.177,615.412L528.177,595.05ZM528.177,620.256L539.634,620.256C548.597,620.256 553.819,624.032 553.819,631.668C553.819,639.796 546.726,642.998 538.621,642.998L528.177,642.998L528.177,620.256Z" class="cls-1"/>
            <path d="M577.745,620.42L604.477,620.42L604.477,615.247L577.745,615.247L577.745,595.214L606.348,595.214L606.348,589.96L572.134,589.96L572.134,648.089L607.283,648.089L607.283,642.834L577.745,642.834L577.745,620.42Z" class="cls-1"/>
            <path d="M649.446,595.543C646.796,591.766 641.263,588.482 633.859,588.482C625.754,588.482 616.245,593.244 616.245,604.492C616.245,615.001 623.727,618.367 631.053,620.748C638.068,623.047 644.536,625.1 644.536,633.228C644.536,640.699 637.99,644.476 632.3,644.476C626.533,644.476 622.091,641.274 619.675,637.169L614.843,640.946C618.817,646.693 625.52,649.566 632.222,649.566C640.951,649.566 650.226,644.476 650.226,632.817C650.226,621.159 641.653,618.531 633.859,615.822C627.702,613.687 621.857,611.799 621.857,604.41C621.857,596.938 628.17,593.49 633.625,593.49C638.847,593.49 642.666,595.789 645.004,599.319L649.446,595.543Z" class="cls-1"/>
        </g>
        <g id="INTERNATIONAL">
            <rect x="65.736" y="472.815" width="7.409" height="76.751" class="cls-1"/>
            <path d="M101.752,472.815L92.491,472.815L92.491,549.566L99.9,549.566L99.9,483.547L100.106,483.547L142.502,549.566L151.764,549.566L151.764,472.815L144.355,472.815L144.355,538.183L144.149,538.183L101.752,472.815Z" class="cls-1"/>
            <path d="M194.469,479.753L218.857,479.753L218.857,472.815L162.671,472.815L162.671,479.753L187.06,479.753L187.06,549.566L194.469,549.566L194.469,479.753Z" class="cls-1"/>
            <path d="M237.174,513.033L272.47,513.033L272.47,506.203L237.174,506.203L237.174,479.753L274.939,479.753L274.939,472.815L229.765,472.815L229.765,549.566L276.174,549.566L276.174,542.628L237.174,542.628L237.174,513.033Z" class="cls-1"/>
            <path d="M298.093,513.683L310.441,513.683L330.61,549.566L339.666,549.566L318.365,513.033C328.964,511.841 336.99,504.686 336.99,493.303C336.99,478.343 326.494,472.815 312.088,472.815L290.684,472.815L290.684,549.566L298.093,549.566L298.093,513.683ZM298.093,479.536L311.264,479.536C322.275,479.536 329.581,483.222 329.581,493.303C329.581,502.409 322.79,506.962 310.956,506.962L298.093,506.962L298.093,479.536Z" class="cls-1"/>
            <path d="M361.584,472.815L352.323,472.815L352.323,549.566L359.732,549.566L359.732,483.547L359.938,483.547L402.334,549.566L411.596,549.566L411.596,472.815L404.187,472.815L404.187,538.183L403.981,538.183L361.584,472.815Z" class="cls-1"/>
            <path d="M438.351,529.402L476.013,529.402L484.04,549.566L492.272,549.566L460.989,472.815L453.786,472.815L422.298,549.566L430.427,549.566L438.351,529.402ZM457.182,481.487L473.235,522.247L441.129,522.247L457.182,481.487Z" class="cls-1"/>
            <path d="M519.829,479.753L544.217,479.753L544.217,472.815L488.032,472.815L488.032,479.753L512.42,479.753L512.42,549.566L519.829,549.566L519.829,479.753Z" class="cls-1"/>
            <rect x="555.125" y="472.815" width="7.409" height="76.751" class="cls-1"/>
            <path d="M653.913,511.19C653.913,487.883 637.654,470.863 615.941,470.863C594.228,470.863 577.97,487.883 577.97,511.19C577.97,534.497 594.228,551.517 615.941,551.517C637.654,551.517 653.913,534.497 653.913,511.19ZM646.092,511.19C646.092,529.077 634.67,544.579 615.941,544.579C597.213,544.579 585.79,529.077 585.79,511.19C585.79,493.303 597.213,477.693 615.941,477.693C634.67,477.693 646.092,493.303 646.092,511.19Z" class="cls-1"/>
            <path d="M678.609,472.815L669.348,472.815L669.348,549.566L676.757,549.566L676.757,483.547L676.963,483.547L719.359,549.566L728.621,549.566L728.621,472.815L721.212,472.815L721.212,538.183L721.006,538.183L678.609,472.815Z" class="cls-1"/>
            <path d="M755.376,529.402L793.038,529.402L801.065,549.566L809.297,549.566L778.014,472.815L770.811,472.815L739.323,549.566L747.452,549.566L755.376,529.402ZM774.207,481.487L790.26,522.247L758.154,522.247L774.207,481.487Z" class="cls-1"/>
            <path d="M827.408,472.815L819.999,472.815L819.999,549.566L861.367,549.566L861.367,542.628L827.408,542.628L827.408,472.815Z" class="cls-1"/>
        </g>
        <g id="CENTRE">
            <path d="M359.487,439.166C355.668,445.16 349.589,447.787 343.276,447.787C329.092,447.787 320.363,435.964 320.363,422.417C320.363,408.87 329.014,397.048 343.276,397.048C350.29,397.048 355.824,400.906 358.162,404.683L362.838,401.071C359.019,395.406 351.304,391.875 343.198,391.875C326.754,391.875 314.44,404.765 314.44,422.417C314.44,440.07 326.52,452.96 343.198,452.96C353.096,452.96 360.188,447.951 363.851,442.122L359.487,439.166Z" class="cls-1"/>
            <path d="M379.127,423.813L405.859,423.813L405.859,418.641L379.127,418.641L379.127,398.608L407.729,398.608L407.729,393.353L373.515,393.353L373.515,451.482L408.665,451.482L408.665,446.227L379.127,446.227L379.127,423.813Z" class="cls-1"/>
            <path d="M426.668,393.353L419.654,393.353L419.654,451.482L425.265,451.482L425.265,401.481L425.421,401.481L457.531,451.482L464.545,451.482L464.545,393.353L458.933,393.353L458.933,442.861L458.778,442.861L426.668,393.353Z" class="cls-1"/>
            <path d="M496.888,398.608L515.359,398.608L515.359,393.353L472.806,393.353L472.806,398.608L491.277,398.608L491.277,451.482L496.888,451.482L496.888,398.608Z" class="cls-1"/>
            <path d="M529.232,424.306L538.584,424.306L553.86,451.482L560.718,451.482L544.585,423.813C552.613,422.91 558.692,417.491 558.692,408.87C558.692,397.54 550.742,393.353 539.831,393.353L523.621,393.353L523.621,451.482L529.232,451.482L529.232,424.306ZM529.232,398.443L539.208,398.443C547.547,398.443 553.08,401.235 553.08,408.87C553.08,415.767 547.937,419.215 538.974,419.215L529.232,419.215L529.232,398.443Z" class="cls-1"/>
            <path d="M575.916,423.813L602.648,423.813L602.648,418.641L575.916,418.641L575.916,398.608L604.518,398.608L604.518,393.353L570.304,393.353L570.304,451.482L605.454,451.482L605.454,446.227L575.916,446.227L575.916,423.813Z" class="cls-1"/>
        </g>
        <rect id="Flag---Blue" serif:id="Flag - Blue" x="410.077" y="688.609" width="33.138" height="5.246" style="fill:rgb(40,50,113);"/>
        <rect id="Flag---White" serif:id="Flag - White" x="442.835" y="688.609" width="33.137" height="5.246" style="fill:white;"/>
        <rect id="Flag---Red" serif:id="Flag - Red" x="475.977" y="688.609" width="33.138" height="5.246" style="fill:rgb(230,53,66);"/>
        <path d="M392.241,247.782C398.612,267.399 433.62,295.832 453.091,321.62C454.37,323.316 456.024,327.045 456.02,330.486C456.016,337.749 445.553,339.749 430.374,334.953C398.774,324.653 362.699,294.724 353.603,260.741C335.753,195.678 435.116,121.128 486.212,108.899C487.795,108.741 489.749,108.799 490.624,109.974C499.112,121.399 376.982,200.791 392.241,247.782" class="cls-1"/>
    </g>
    <rect x="0" y="0" width="928" height="736" style="fill:none;"/>
</svg>
